<?xml version="1.0" standalone="no"?>
<!DOCTYPE svg PUBLIC "-//W3C//DTD SVG 20010904//EN"
 "http://www.w3.org/TR/2001/REC-SVG-20010904/DTD/svg10.dtd">
<svg version="1.0" xmlns="http://www.w3.org/2000/svg"
 width="700.000000pt" height="700.000000pt" viewBox="0 0 700.000000 700.000000"
 preserveAspectRatio="xMidYMid meet">
<metadata>
Created by potrace 1.11, written by Peter Selinger 2001-2013
</metadata>
<g transform="translate(0.000000,700.000000) scale(0.100000,-0.100000)"
fill="#000000" stroke="none">
<path d="M2627 5834 c-1 -2 -34 -4 -72 -5 -39 -1 -90 -6 -115 -11 -25 -5 -57
-11 -71 -13 -122 -22 -348 -125 -428 -194 -13 -12 -28 -21 -32 -21 -4 0 -50
-43 -102 -94 -289 -290 -399 -661 -322 -1085 11 -59 65 -202 108 -285 141
-274 411 -495 712 -580 119 -34 176 -41 320 -41 171 0 237 11 385 62 407 139
707 506 771 943 31 218 -20 513 -122 697 -180 326 -451 528 -809 604 -43 10
-219 27 -223 23z"/>
<path d="M5250 4521 l0 -437 -431 0 c-277 1 -433 -3 -437 -9 -4 -5 -7 -137 -7
-292 l0 -283 437 0 438 0 0 -435 c0 -341 3 -435 13 -436 6 -1 137 -2 289 -3
271 -1 278 -1 279 19 1 11 2 207 3 435 l1 415 438 3 437 2 0 289 c0 222 -3
290 -12 293 -7 2 -205 3 -439 3 l-425 -1 0 420 c1 232 0 429 -2 438 -4 16 -28
17 -293 17 l-289 -1 0 -437z"/>
<path d="M2460 2912 c-52 -3 -290 -29 -335 -36 -502 -78 -928 -211 -1255 -391
-166 -92 -249 -153 -356 -261 -119 -119 -188 -241 -212 -374 -6 -30 -11 -196
-12 -367 l-1 -313 28 -1 c37 0 4499 0 4580 0 l62 1 0 313 c-1 350 -8 407 -62
522 -165 345 -702 647 -1437 809 -152 33 -154 34 -335 61 -224 34 -488 49
-665 37z"/>
</g>
</svg>
